:SAMPLES-PER-SECOND 30
:FULLY-SPECIFIED
:DEGREES
128
root  -41.5534 41.2343 -41.2965 0.895737 5.40019 4.4615
RightUpLeg  -4.71505 -15.1304 -10.9088
RightLeg  10.5399 -26.1062 3.77835
RightFoot  -4.07162 -0.214633 2.94291
RightToes  0.000482159 0.542163 -0.142577
Spine  12.6853 -0.969671 10.8518
Spine1  9.18093 1.36635 -5.29735
HEad  -11.1941 48.1781 -28.3141
LeftShoulder1  8.95938 -14.0525 -44.4478
LeftArm  -4.27545 8.23585 -28.7345
LeftForeArm  28.7207 -72.6534 -36.3206
LeftHand  -0.25398 0.0180481 5.50724
RightShoulder  4.12544 8.3296 28.8778
RightArm  -9.9338 -30.3358 21.921
RightForeArm  22.4917 77.3279 71.319
RightHand  -0.089706 -14.1287 -0.158491
LeftUpLeg  -16.2915 22.0677 -4.56562
LeftLeg  11.96 3.79181 -1.0879
LeftFoot  0.501699 0.50135 -4.86371
LeftToes  1.06248e-005 4.65854e-005 -8.185e-006
129
root  -41.4038 41.2603 -41.4364 1.3338 9.88109 4.30891
RightUpLeg  -3.75354 -15.2713 -11.3613
RightLeg  9.59225 -29.6668 3.925
RightFoot  -3.66182 -0.281391 3.81624
RightToes  0.000482159 0.542163 -0.142577
Spine  10.8606 -0.642263 10.5199
Spine1  9.90489 1.73919 -5.83019
HEad  -10.6868 46.5354 -26.8929
LeftShoulder1  9.01611 -14.0092 -44.8582
LeftArm  -5.5251 10.0847 -28.0496
LeftForeArm  30.9922 -73.5264 -38.7362
LeftHand  -0.25398 0.0180481 5.50724
RightShoulder  4.14384 8.31294 29.0872
RightArm  -9.39287 -29.3142 22.2414
RightForeArm  20.978 77.2108 69.7855
RightHand  -0.0647366 -14.2518 -0.483946
LeftUpLeg  -16.8139 26.2503 -3.94475
LeftLeg  13.9403 2.04251 0.149245
LeftFoot  0.591486 0.426401 -4.11624
LeftToes  1.06248e-005 4.65854e-005 -8.185e-006
130
root  -41.1737 41.27 -41.5849 1.75117 13.8516 4.07823
RightUpLeg  -2.92626 -15.5018 -11.7795
RightLeg  8.68468 -33.1345 4.16432
RightFoot  -3.02311 -0.368894 4.78354
RightToes  0.000482159 0.542163 -0.142577
Spine  9.50367 -0.404449 10.3201
Spine1  10.3393 2.15514 -6.69787
HEad  -10.5281 44.7812 -25.3029
LeftShoulder1  8.99564 -13.9101 -45.0177
LeftArm  -7.40603 11.8306 -27.7111
LeftForeArm  33.1773 -74.241 -40.9593
LeftHand  -0.25398 0.0180481 5.50724
RightShoulder  4.19623 8.3205 29.5169
RightArm  -8.60545 -27.635 22.4498
RightForeArm  19.1833 77.0355 67.595
RightHand  -0.0870257 -14.7546 -0.217767
LeftUpLeg  -17.2453 29.6774 -2.84816
LeftLeg  15.1494 1.87913 0.683882
LeftFoot  0.81349 0.329259 -3.1392
LeftToes  1.06248e-005 4.65854e-005 -8.185e-006
131
root  -40.8841 41.2683 -41.7443 2.24217 17.3668 3.67889
RightUpLeg  -2.36421 -15.5434 -11.9807
RightLeg  7.70411 -36.3673 4.47471
RightFoot  -2.29634 -0.465132 5.67935
RightToes  0.000482159 0.542163 -0.142577
Spine  8.67175 -0.101278 10.2585
Spine1  10.2214 2.63169 -7.51649
HEad  -10.9021 42.8553 -24.4196
LeftShoulder1  8.95917 -13.757 -45.2416
LeftArm  -9.48599 13.1987 -27.54
LeftForeArm  34.7927 -74.6947 -42.5002
LeftHand  -0.25398 0.0180481 5.50724
RightShoulder  4.24434 8.3199 29.9332
RightArm  -7.6615 -25.7989 22.6096
RightForeArm  17.1566 76.8652 65.9104
RightHand  -0.0120813 -14.8548 -1.14704
LeftUpLeg  -17.8289 33.056 -1.8253
LeftLeg  15.6098 2.03524 0.813265
LeftFoot  0.817584 0.209833 -2.01508
LeftToes  1.06248e-005 4.65854e-005 -8.185e-006
132
root  -40.5132 41.2553 -41.9031 2.84038 20.3968 3.21564
RightUpLeg  -2.01326 -15.4989 -12.1337
RightLeg  6.60231 -38.8742 4.95725
RightFoot  -1.58527 -0.553948 6.35743
RightToes  0.000482159 0.542163 -0.142577
Spine  8.09848 0.32562 10.4458
Spine1  9.83686 3.27549 -8.46252
HEad  -11.5823 40.6902 -23.8364
LeftShoulder1  8.95332 -13.656 -45.4871
LeftArm  -11.3411 14.2469 -27.2675
LeftForeArm  36.1098 -75.0469 -43.8003
LeftHand  -0.25398 0.0180481 5.50724
RightShoulder  4.32196 8.39417 30.3676
RightArm  -6.87645 -24.043 22.7678
RightForeArm  13.9104 76.6913 64.8355
RightHand  0.258113 -13.2952 -5.17866
LeftUpLeg  -18.2237 35.3171 -0.907785
LeftLeg  15.2278 3.74194 0.943321
LeftFoot  0.614559 0.115488 -1.14081
LeftToes  1.06248e-005 4.65854e-005 -8.185e-006
